<?xml version="1.0" encoding="UTF-8"?><svg id="a" xmlns="http://www.w3.org/2000/svg" viewBox="0 0 612 792"><defs><style>.b{fill:#231f20;opacity:.4;}</style></defs><path class="b" d="M432.08,119.66c-2.66-1.27-9.68-13.05-9.68-13.05,0,0,9.69-10.12,34.11-8.16,14.6,1.17,18.82,9.07,19.84,11.77,.21,.55,.19,1.16-.06,1.7-.7,1.52-2.4,4.75-4.35,5.34-8.88,2.7-31.48,6.39-39.86,2.4Z"/><path class="b" d="M373.76,127.87c-2.66-1.27-9.68-13.05-9.68-13.05,0,0,9.69-10.12,34.11-8.16,14.6,1.17,18.82,9.07,19.84,11.77,.21,.55,.19,1.16-.06,1.7-.7,1.52-2.4,4.75-4.35,5.34-8.88,2.7-31.48,6.39-39.86,2.4Z"/><path class="b" d="M311.99,138.73c-2.66-1.27-9.68-13.05-9.68-13.05,0,0,9.69-10.12,34.11-8.16,14.6,1.17,18.82,9.07,19.84,11.77,.21,.55,.19,1.16-.06,1.7-.7,1.52-2.4,4.75-4.35,5.34-8.88,2.7-31.48,6.39-39.86,2.4Z"/><path class="b" d="M254.65,142.55c-2.66-1.27-9.68-13.05-9.68-13.05,0,0,9.69-10.12,34.11-8.16,14.6,1.17,18.82,9.07,19.84,11.77,.21,.55,.19,1.16-.06,1.7-.7,1.52-2.4,4.75-4.35,5.34-8.88,2.7-31.48,6.39-39.86,2.4Z"/><path class="b" d="M195.02,150.96c-2.66-1.27-9.68-13.05-9.68-13.05,0,0,9.69-10.12,34.11-8.16,14.6,1.17,18.82,9.07,19.84,11.77,.21,.55,.19,1.16-.06,1.7-.7,1.52-2.4,4.75-4.35,5.34-8.88,2.7-31.48,6.39-39.86,2.4Z"/><path class="b" d="M134.98,160.79c-2.66-1.27-9.68-13.05-9.68-13.05,0,0,9.69-10.12,34.11-8.16,14.6,1.17,18.82,9.07,19.84,11.77,.21,.55,.19,1.16-.06,1.7-.7,1.52-2.4,4.75-4.35,5.34-8.88,2.7-31.48,6.39-39.86,2.4Z"/><path class="b" d="M456.12,141.22c-2.66-1.27-9.68-13.05-9.68-13.05,0,0,9.69-10.12,34.11-8.16,14.6,1.17,18.82,9.07,19.84,11.77,.21,.55,.19,1.16-.06,1.7-.7,1.52-2.4,4.75-4.35,5.34-8.88,2.7-31.48,6.39-39.86,2.4Z"/><path class="b" d="M397.81,149.43c-2.66-1.27-9.68-13.05-9.68-13.05,0,0,9.69-10.12,34.11-8.16,14.6,1.17,18.82,9.07,19.84,11.77,.21,.55,.19,1.16-.06,1.7-.7,1.52-2.4,4.75-4.35,5.34-8.88,2.7-31.48,6.39-39.86,2.4Z"/><path class="b" d="M336.04,160.28c-2.66-1.27-9.68-13.05-9.68-13.05,0,0,9.69-10.12,34.11-8.16,14.6,1.17,18.82,9.07,19.84,11.77,.21,.55,.19,1.16-.06,1.7-.7,1.52-2.4,4.75-4.35,5.34-8.88,2.7-31.48,6.39-39.86,2.4Z"/><path class="b" d="M278.7,164.1c-2.66-1.27-9.68-13.05-9.68-13.05,0,0,9.69-10.12,34.11-8.16,14.6,1.17,18.82,9.07,19.84,11.77,.21,.55,.19,1.16-.06,1.7-.7,1.52-2.4,4.75-4.35,5.34-8.88,2.7-31.48,6.39-39.86,2.4Z"/><path class="b" d="M219.06,172.51c-2.66-1.27-9.68-13.05-9.68-13.05,0,0,9.69-10.12,34.11-8.16,14.6,1.17,18.82,9.07,19.84,11.77,.21,.55,.19,1.16-.06,1.7-.7,1.52-2.4,4.75-4.35,5.34-8.88,2.7-31.48,6.39-39.86,2.4Z"/><path class="b" d="M159.02,182.34c-2.66-1.27-9.68-13.05-9.68-13.05,0,0,9.69-10.12,34.11-8.16,14.6,1.17,18.82,9.07,19.84,11.77,.21,.55,.19,1.16-.06,1.7-.7,1.52-2.4,4.75-4.35,5.34-8.88,2.7-31.48,6.39-39.86,2.4Z"/></svg>