<?xml version="1.0" encoding="UTF-8"?><svg id="a" xmlns="http://www.w3.org/2000/svg" viewBox="0 0 612 792"><defs><style>.b{fill:#ec008c;}</style></defs><path class="b" d="M419.62,127.14s.05-4.77,1.37-5.72c.99-.71,1.57-1.86,1.57-3.07v-9.62c0-1.18,.54-2.3,1.49-3.01,3.54-2.64,13.63-8.43,32.62-6.91,14.99,1.2,19.04,9.5,19.92,11.98,.15,.41,.21,.85,.21,1.29l-.15,10.84c-.02,1.2,.53,2.33,1.48,3.06l.99,.76c.95,.73,.27,5.56,.25,6.76,0,0-2.78,8.82-46.9,8.82-5.57,0-12.85-15.17-12.85-15.17Z"/><path class="b" d="M361.31,135.35s.05-4.77,1.37-5.72c.99-.71,1.57-1.86,1.57-3.07v-9.62c0-1.18,.54-2.3,1.49-3.01,3.54-2.64,13.63-8.43,32.62-6.91,14.99,1.2,19.04,9.5,19.92,11.98,.15,.41,.21,.85,.21,1.29l-.15,10.84c-.02,1.2,.53,2.33,1.48,3.06l.99,.76c.95,.73,.27,5.56,.25,6.76,0,0-2.78,8.82-46.9,8.82-5.57,0-12.85-15.17-12.85-15.17Z"/><path class="b" d="M299.54,146.2s.05-4.77,1.37-5.72c.99-.71,1.57-1.86,1.57-3.07v-9.62c0-1.18,.54-2.3,1.49-3.01,3.54-2.64,13.63-8.43,32.62-6.91,14.99,1.2,19.04,9.5,19.92,11.98,.15,.41,.21,.85,.21,1.29l-.15,10.84c-.02,1.2,.53,2.33,1.48,3.06l.99,.76c.95,.73,.27,5.56,.25,6.76,0,0-2.78,8.82-46.9,8.82-5.57,0-12.85-15.17-12.85-15.17Z"/><path class="b" d="M242.2,150.03s.05-4.77,1.37-5.72c.99-.71,1.57-1.86,1.57-3.07v-9.62c0-1.18,.54-2.3,1.49-3.01,3.54-2.64,13.63-8.43,32.62-6.91,14.99,1.2,19.04,9.5,19.92,11.98,.15,.41,.21,.85,.21,1.29l-.15,10.84c-.02,1.2,.53,2.33,1.48,3.06l.99,.76c.95,.73,.27,5.56,.25,6.76,0,0-2.78,8.82-46.9,8.82-5.57,0-12.85-15.17-12.85-15.17Z"/><path class="b" d="M182.56,158.44s.05-4.77,1.37-5.72c.99-.71,1.57-1.86,1.57-3.07v-9.62c0-1.18,.54-2.3,1.49-3.01,3.54-2.64,13.63-8.43,32.62-6.91,14.99,1.2,19.04,9.5,19.92,11.98,.15,.41,.21,.85,.21,1.29l-.15,10.84c-.02,1.2,.53,2.33,1.48,3.06l.99,.76c.95,.73,.27,5.56,.25,6.76,0,0-2.78,8.82-46.9,8.82-5.57,0-12.85-15.17-12.85-15.17Z"/><path class="b" d="M122.52,168.27s.05-4.77,1.37-5.72c.99-.71,1.57-1.86,1.57-3.07v-9.62c0-1.18,.54-2.3,1.49-3.01,3.54-2.64,13.63-8.43,32.62-6.91,14.99,1.2,19.04,9.5,19.92,11.98,.15,.41,.21,.85,.21,1.29l-.15,10.84c-.02,1.2,.53,2.33,1.48,3.06l.99,.76c.95,.73,.27,5.56,.25,6.76,0,0-2.78,8.82-46.9,8.82-5.57,0-12.85-15.17-12.85-15.17Z"/><path class="b" d="M443.67,148.69s.05-4.77,1.37-5.72c.99-.71,1.57-1.86,1.57-3.07v-9.62c0-1.18,.54-2.3,1.49-3.01,3.54-2.64,13.63-8.43,32.62-6.91,14.99,1.2,19.04,9.5,19.92,11.98,.15,.41,.21,.85,.21,1.29l-.15,10.84c-.02,1.2,.53,2.33,1.48,3.06l.99,.76c.95,.73,.27,5.56,.25,6.76,0,0-2.78,8.82-46.9,8.82-5.57,0-12.85-15.17-12.85-15.17Z"/><path class="b" d="M385.36,156.9s.05-4.77,1.37-5.72c.99-.71,1.57-1.86,1.57-3.07v-9.62c0-1.18,.54-2.3,1.49-3.01,3.54-2.64,13.63-8.43,32.62-6.91,14.99,1.2,19.04,9.5,19.92,11.98,.15,.41,.21,.85,.21,1.29l-.15,10.84c-.02,1.2,.53,2.33,1.48,3.06l.99,.76c.95,.73,.27,5.56,.25,6.76,0,0-2.78,8.82-46.9,8.82-5.57,0-12.85-15.17-12.85-15.17Z"/><path class="b" d="M323.58,167.76s.05-4.77,1.37-5.72c.99-.71,1.57-1.86,1.57-3.07v-9.62c0-1.18,.54-2.3,1.49-3.01,3.54-2.64,13.63-8.43,32.62-6.91,14.99,1.2,19.04,9.5,19.92,11.98,.15,.41,.21,.85,.21,1.29l-.15,10.84c-.02,1.2,.53,2.33,1.48,3.06l.99,.76c.95,.73,.27,5.56,.25,6.76,0,0-2.78,8.82-46.9,8.82-5.57,0-12.85-15.17-12.85-15.17Z"/><path class="b" d="M266.24,171.58s.05-4.77,1.37-5.72c.99-.71,1.57-1.86,1.57-3.07v-9.62c0-1.18,.54-2.3,1.49-3.01,3.54-2.64,13.63-8.43,32.62-6.91,14.99,1.2,19.04,9.5,19.92,11.98,.15,.41,.21,.85,.21,1.29l-.15,10.84c-.02,1.2,.53,2.33,1.48,3.06l.99,.76c.95,.73,.27,5.56,.25,6.76,0,0-2.78,8.82-46.9,8.82-5.57,0-12.85-15.17-12.85-15.17Z"/><path class="b" d="M206.61,179.99s.05-4.77,1.37-5.72c.99-.71,1.57-1.86,1.57-3.07v-9.62c0-1.18,.54-2.3,1.49-3.01,3.54-2.64,13.63-8.43,32.62-6.91,14.99,1.2,19.04,9.5,19.92,11.98,.15,.41,.21,.85,.21,1.29l-.15,10.84c-.02,1.2,.53,2.33,1.48,3.06l.99,.76c.95,.73,.27,5.56,.25,6.76,0,0-2.78,8.82-46.9,8.82-5.57,0-12.85-15.17-12.85-15.17Z"/><path class="b" d="M146.57,189.82s.05-4.77,1.37-5.72c.99-.71,1.57-1.86,1.57-3.07v-9.62c0-1.18,.54-2.3,1.49-3.01,3.54-2.64,13.63-8.43,32.62-6.91,14.99,1.2,19.04,9.5,19.92,11.98,.15,.41,.21,.85,.21,1.29l-.15,10.84c-.02,1.2,.53,2.33,1.48,3.06l.99,.76c.95,.73,.27,5.56,.25,6.76,0,0-2.78,8.82-46.9,8.82-5.57,0-12.85-15.17-12.85-15.17Z"/></svg>